REM DIRINDEX 1\2,1\3,1\4,1\5
REM DIRNAME cjc004,folder01,folder02,folder03,folder04
TITLE ""
FILE "1Q_t_1849-1858.mp3" MP3
  TRACK 01 AUDIO
    TITLE "3:cjc004_6454"
    INDEX 01 00:00:00
  TRACK 02 AUDIO
    TITLE "0:"
    INDEX 01 00:01:05
  TRACK 03 AUDIO
    TITLE "4:cjc004_6455"
    INDEX 01 00:01:42
  TRACK 04 AUDIO
    TITLE "0:"
    INDEX 01 00:03:19
  TRACK 05 AUDIO
    TITLE "5:cjc004_6456"
    INDEX 01 00:03:47
  TRACK 06 AUDIO
    TITLE "0:"
    INDEX 01 00:09:32
  TRACK 07 AUDIO
    TITLE "3:cjc004_6457"
    INDEX 01 00:10:19
  TRACK 08 AUDIO
    TITLE "0:"
    INDEX 01 00:11:31
  TRACK 09 AUDIO
    TITLE "4:cjc004_6458"
    INDEX 01 00:11:60
  TRACK 10 AUDIO
    TITLE "0:"
    INDEX 01 00:12:46
  TRACK 11 AUDIO
    TITLE "5:cjc004_6459"
    INDEX 01 00:12:71
  TRACK 12 AUDIO
    TITLE "0:"
    INDEX 01 00:17:41
  TRACK 13 AUDIO
    TITLE "3:cjc004_6460"
    INDEX 01 00:18:17
  TRACK 14 AUDIO
    TITLE "0:"
    INDEX 01 00:19:26
  TRACK 15 AUDIO
    TITLE "4:cjc004_6461"
    INDEX 01 00:19:52
  TRACK 16 AUDIO
    TITLE "0:"
    INDEX 01 00:21:06
  TRACK 17 AUDIO
    TITLE "5:cjc004_6462"
    INDEX 01 00:21:29
  TRACK 18 AUDIO
    TITLE "0:"
    INDEX 01 00:27:10
  TRACK 19 AUDIO
    TITLE "3:cjc004_6463"
    INDEX 01 00:27:65
  TRACK 20 AUDIO
    TITLE "0:"
    INDEX 01 00:29:03
  TRACK 21 AUDIO
    TITLE "4:cjc004_6464"
    INDEX 01 00:29:29
  TRACK 22 AUDIO
    TITLE "0:"
    INDEX 01 00:30:48
  TRACK 23 AUDIO
    TITLE "5:cjc004_6465"
    INDEX 01 00:30:73
  TRACK 24 AUDIO
    TITLE "0:"
    INDEX 01 00:36:46
  TRACK 25 AUDIO
    TITLE "3:cjc004_6466"
    INDEX 01 00:37:26
  TRACK 26 AUDIO
    TITLE "0:"
    INDEX 01 00:38:59
  TRACK 27 AUDIO
    TITLE "4:cjc004_6467"
    INDEX 01 00:39:11
  TRACK 28 AUDIO
    TITLE "0:"
    INDEX 01 00:40:42
  TRACK 29 AUDIO
    TITLE "5:cjc004_6468"
    INDEX 01 00:40:72
  TRACK 30 AUDIO
    TITLE "0:"
    INDEX 01 00:45:04
  TRACK 31 AUDIO
    TITLE "3:cjc004_6469"
    INDEX 01 00:45:61
  TRACK 32 AUDIO
    TITLE "0:"
    INDEX 01 00:47:01
  TRACK 33 AUDIO
    TITLE "4:cjc004_6470"
    INDEX 01 00:47:28
  TRACK 34 AUDIO
    TITLE "0:"
    INDEX 01 00:48:28
  TRACK 35 AUDIO
    TITLE "5:cjc004_6471"
    INDEX 01 00:48:51
  TRACK 36 AUDIO
    TITLE "0:"
    INDEX 01 00:54:48
  TRACK 37 AUDIO
    TITLE "3:cjc004_6472"
    INDEX 01 00:55:16
  TRACK 38 AUDIO
    TITLE "0:"
    INDEX 01 00:56:18
  TRACK 39 AUDIO
    TITLE "4:cjc004_6473"
    INDEX 01 00:56:47
  TRACK 40 AUDIO
    TITLE "0:"
    INDEX 01 00:57:60
  TRACK 41 AUDIO
    TITLE "5:cjc004_6474"
    INDEX 01 00:58:13
  TRACK 42 AUDIO
    TITLE "0:"
    INDEX 01 01:03:26
  TRACK 43 AUDIO
    TITLE "3:cjc004_6475"
    INDEX 01 01:04:00
  TRACK 44 AUDIO
    TITLE "0:"
    INDEX 01 01:05:22
  TRACK 45 AUDIO
    TITLE "4:cjc004_6476"
    INDEX 01 01:05:50
  TRACK 46 AUDIO
    TITLE "0:"
    INDEX 01 01:07:08
  TRACK 47 AUDIO
    TITLE "5:cjc004_6477"
    INDEX 01 01:07:31
  TRACK 48 AUDIO
    TITLE "0:"
    INDEX 01 01:11:47
  TRACK 49 AUDIO
    TITLE "3:cjc004_6478"
    INDEX 01 01:12:26
  TRACK 50 AUDIO
    TITLE "0:"
    INDEX 01 01:13:30
  TRACK 51 AUDIO
    TITLE "4:cjc004_6479"
    INDEX 01 01:13:67
  TRACK 52 AUDIO
    TITLE "0:"
    INDEX 01 01:15:11
  TRACK 53 AUDIO
    TITLE "5:cjc004_6480"
    INDEX 01 01:15:31
  TRACK 54 AUDIO
    TITLE "0:"
    INDEX 01 01:19:70
  TRACK 55 AUDIO
    TITLE "3:cjc004_6481"
    INDEX 01 01:20:49
  TRACK 56 AUDIO
    TITLE "0:"
    INDEX 01 01:21:57
  TRACK 57 AUDIO
    TITLE "4:cjc004_6482"
    INDEX 01 01:22:11
  TRACK 58 AUDIO
    TITLE "0:"
    INDEX 01 01:23:22
  TRACK 59 AUDIO
    TITLE "5:cjc004_6483"
    INDEX 01 01:23:46
  TRACK 60 AUDIO
    TITLE "0:"
    INDEX 01 01:29:39
